<?xml version="1.0" encoding="utf-8"?>
<!-- Generator: Adobe Illustrator 24.0.1, SVG Export Plug-In . SVG Version: 6.00 Build 0)  -->
<svg version="1.1" id="Layer_1" xmlns="http://www.w3.org/2000/svg" xmlns:xlink="http://www.w3.org/1999/xlink" x="0px" y="0px"
	 viewBox="0 0 1000 1000" style="enable-background:new 0 0 1000 1000;" xml:space="preserve">
<style type="text/css">
	.st0{fill:url(#SVGID_1_);}
	.st1{fill:#FFFFFF;}
</style>
<title>Asset 22</title>
<g id="Layer_2_1_">
	<g id="Layer_1-2">
		
			<linearGradient id="SVGID_1_" gradientUnits="userSpaceOnUse" x1="0" y1="497.7323" x2="1000" y2="497.7323" gradientTransform="matrix(1 0 0 -1 0 997.7323)">
			<stop  offset="0" style="stop-color:#13574B"/>
			<stop  offset="0.5" style="stop-color:#13574B;stop-opacity:0.85"/>
			<stop  offset="1" style="stop-color:#13574B"/>
		</linearGradient>
		<rect y="0" class="st0" width="1000" height="1000"/>
		<path class="st1" d="M658.5,175h-188c0,0-258.3-3.9-307.9,271.8c0,0-39.3,222.6,171.5,342.7c0,0,59.9,29.5,113.7,35.5h392.6v-29.6
			c0,0-39.3-3.9-37.2-51.2l2.1-218.7c0,0,8.3-33.4,35.1-33.4v-29.5l-245.9-2v29.5c0,0,80.6-8.1,82.7,35.4v222.7
			c0,0,0,45.3-35.1,45.3l-93-2c0,0-150.9-9.8-219-139.8c0,0-90.9-124.1-12.4-289.5c0,0,72.3-175.3,316.2-159.5L658.5,175z"/>
		<rect x="668" y="254.1" class="st1" width="124.9" height="124.9"/>
	</g>
</g>
</svg>
