<?xml version="1.0" encoding="UTF-8"?>
<svg id="Layer_2" data-name="Layer 2" xmlns="http://www.w3.org/2000/svg" viewBox="0 0 662.72 201.1">
  <defs>
    <style>
      .cls-1 {
        fill: #fff;
      }
    </style>
  </defs>
  <g id="Layer_1-2" data-name="Layer 1">
    <path class="cls-1" d="m424.39,172.69c-2.49,0-4.98.12-7.6.62v27.04h6.23v-8.97c.87.12,1.74.12,2.74.12,6.73,0,11.09-3.74,11.09-9.59.12-6.23-4.49-9.22-12.46-9.22Zm.25,15.7c-.5,0-1,0-1.62-.12v-12.46c.37-.12.87-.12,1.37-.12,4.49,0,6.35,2.49,6.35,6.23s-1.74,6.48-6.1,6.48Zm38.12-7.23c0-5.36-3.86-8.6-12.46-8.6-2.49,0-4.98.25-7.48.62v27.16h6.23v-10.47c.87.12,1.62.12,2.49.12h.12l5.98,10.34h6.85l-7.23-11.46c3.24-1.12,5.48-4.24,5.48-7.72Zm-12.46,5.61c-.5,0-.87-.12-1.25-.12v-10.96c.5-.12,1-.12,1.62-.12,3.99,0,5.98,1.99,5.98,5.36-.12,3.11-1.99,5.86-6.35,5.86Zm32.39-14.33c-8.1,0-14.08,5.98-14.08,14.7,0,9.22,5.48,13.95,13.7,13.95s14.08-5.98,14.08-14.7c0-9.34-5.48-13.95-13.7-13.95h0Zm-.25,25.17c-4.61,0-7.23-4.98-7.23-10.96s2.87-10.84,7.35-10.84c4.73,0,7.23,4.98,7.23,10.96s-2.99,10.84-7.35,10.84h0Zm28.65-24.92c-2.49,0-4.98.12-7.48.62v27.04h6.23v-8.97c.87.12,1.74.12,2.74.12,6.73,0,11.09-3.74,11.09-9.59-.12-6.23-4.86-9.22-12.58-9.22h0Zm.25,15.7c-.5,0-1,0-1.62-.12v-12.46c.37-.12.87-.12,1.25-.12,4.49,0,6.35,2.49,6.35,6.23s-1.87,6.48-5.98,6.48h0Zm24.29,8.47v-8.6h.62c2.62,0,5.23,0,7.97.12v-3.74c-2.62.12-5.36.12-7.97.12h-.75v-8.35h2.87c2.62,0,5.36.12,7.97.37v-3.74h-16.94v27.28h17.19v-3.86c-2.62.37-5.36.5-7.97.37h-2.99Zm37.87-15.7c0-5.36-3.86-8.6-12.46-8.6-2.49,0-4.98.25-7.48.62v27.16h6.23v-10.47c.87.12,1.62.12,2.49.12h.12l6.1,10.34h6.73l-7.23-11.46c3.24-1.25,5.36-4.24,5.48-7.72h0Zm-12.46,5.61c-.5,0-.87,0-1.37-.12v-10.96c.5-.12,1-.12,1.5-.12,4.11,0,5.98,1.99,5.98,5.36,0,3.11-1.99,5.86-6.1,5.86h0Zm17.07-9.97c2.24-.25,4.49-.37,6.73-.37h1v23.92h6.23v-23.92h1c2.24,0,4.49.12,6.85.37v-3.74h-21.8v3.74Zm27.41,23.55h6.23v-27.28h-6.23v27.28Zm21.18-3.49v-8.6h.75c2.62,0,5.23,0,7.97.12v-3.74c-2.62.12-5.36.12-7.97.12h-.75v-8.35h2.87c2.62,0,5.36.12,7.97.37v-3.74h-17.07v27.28h17.19v-3.86c-2.62.37-5.36.5-7.97.37h-2.99Zm30.77-11.96l-4.11-2.12c-2.49-1.25-3.74-2.12-3.74-3.99s1.74-2.99,4.24-2.99,4.61.75,6.6,1.99l1.62-3.24c-2.49-1.62-5.36-2.37-8.22-2.24-5.48,0-10.22,2.74-10.22,7.85,0,3.74,1.87,5.73,5.23,7.48l3.74,1.87c2.99,1.5,4.36,2.49,4.36,4.49,0,2.24-2.24,3.36-4.86,3.36s-4.98-1-6.85-2.62l-1.99,3.24c2.49,1.99,5.73,3.11,8.97,2.99,6.23,0,10.47-3.24,10.47-8.35-.12-3.24-1.62-5.86-5.36-7.85l.12.12Z"/>
    <polygon class="cls-1" points="649.52 38.39 609.4 85.98 585.73 63.93 610.27 106.29 649.52 38.39"/>
    <path class="cls-1" d="m431.24,106.66c-4.86,0-9.72.25-14.58,1v43.85c4.86.62,9.72,1,14.7.87,21.93,0,29.78-11.84,29.78-23.42-.12-13.46-8.97-22.3-29.9-22.3Zm.87,40.49c-1.5,0-2.99-.12-4.49-.25v-34.76c1.5-.25,2.87-.37,4.36-.37,11.84,0,17.44,6.85,17.44,17.44,0,9.59-5.23,17.94-17.32,17.94Zm77.62-14.58c0,9.34-3.74,13.7-11.09,13.7-7.97,0-10.47-6.1-10.47-15.45v-23.42h-11.09v26.04c0,11.84,5.86,19.31,20.06,19.31s20.43-8.35,20.43-20.56v-24.79h-7.72l-.12,25.17Zm53.07-4.49c5.36-1.74,8.1-5.61,8.1-9.97,0-8.6-8.72-11.46-20.93-11.46-4.49,0-8.97.25-13.33.87v43.85c4.98.62,10.09.87,15.2.87,13.21,0,21.8-4.73,21.8-13.33.12-5.23-3.61-9.34-10.84-10.84Zm-15.07-16.32c1.12-.12,2.24-.25,3.36-.25,5.98,0,9.34,2.74,9.34,6.98,0,5.23-3.61,7.72-9.59,7.72h-3.11v-14.45Zm3.11,35.63c-1,0-2.12-.12-3.11-.25v-16.07h3.11c7.48,0,11.84,2.74,11.84,7.72-.12,5.48-3.99,8.6-11.84,8.6Zm100.79-39.99v44.23h11.09v-44.23h-11.09Zm-67.53,44.23h8.47l15.57-28.65,15.57,28.65h12.71l-26.16-45.35-26.16,45.35Z"/>
    <g id="Layer_1-2" data-name="Layer 1-2">
      <g>
        <g>
          <path class="cls-1" d="m41.09,109.57c.67,0,1.12.22,1.12.9s-.45,1.57-1.12,2.92l-12.57,22.45-12.57-22.68c-.45-1.12-1.12-2.02-1.12-2.69s.67-1.12,1.35-1.12v-1.57H0v1.57c.9,0,1.8.22,1.8,1.35v42.88h8.98v-32.11h0l17.06,32.11h.22l17.51-32.11h0v32.11h9.65v-42.88c0-1.12.9-1.35,1.8-1.35v-1.57h-16.17v1.57l.22.22Z"/>
          <path class="cls-1" d="m111.59,109.57c1.8,0,2.69.45,2.69,1.57v26.27c0,7.41-4.94,9.65-13.92,9.65s-13.92-2.25-13.92-9.65v-26.27c0-1.12.67-1.57,2.02-1.57v-1.57h-14.37v1.57c1.57,0,2.47.45,2.47,1.57v25.82c0,13.7,8.08,17.51,23.35,17.51s23.35-3.82,23.35-17.51v-25.82c0-1.12.67-1.57,2.02-1.57v-1.57h-13.92v1.57h.22Z"/>
          <path class="cls-1" d="m166.37,146.39h-13.47v-30.76h13.47c11,0,16.17,3.37,16.17,15.49s-5.16,15.49-16.17,15.49m3.59-38.39h-28.96v1.57c1.12,0,2.02.45,2.02,1.57v42.66h26.94c12.8,0,22.68-7.41,22.68-22.9s-9.88-22.9-22.68-22.9"/>
          <path class="cls-1" d="m233.73,146.39c-8.98,0-18.64-5.61-18.64-15.49s9.65-15.49,18.64-15.49,18.64,5.61,18.64,15.49-9.65,15.49-18.64,15.49m0-38.84c-12.8,0-28.07,7.41-28.07,23.35s15.49,23.35,28.07,23.35,28.07-7.41,28.07-23.35-15.49-23.35-28.07-23.35"/>
          <path class="cls-1" d="m314.78,107.99v1.57c1.57,0,2.25.45,2.25,1.57v27.62l-24.92-26.04c-1.12-1.35-1.8-2.02-1.8-2.47s.45-.9.67-.9v-1.57h-14.82v1.57c.9,0,1.57.45,1.57,1.57v42.66h9.21v-32.11l30.98,32.11h8.31v-42.66c0-1.12.67-1.57,1.57-1.57v-1.57h-13.25l.22.22Z"/>
        </g>
        <g>
          <polygon class="cls-1" points="178.72 58.38 181.19 66.01 165.92 77.24 150.43 66.01 159.63 38.17 159.63 38.17 141.45 36.37 138.53 45.13 145.94 50.29 154.69 42.43 146.61 67.36 165.92 81.05 185 67.36 182.98 61.52 178.72 58.38"/>
          <polygon class="cls-1" points="148.63 55.23 142.12 59.95 126.85 48.95 132.69 30.98 161.88 30.98 161.88 30.98 158.06 13.02 148.86 13.02 146.16 21.78 156.49 27.62 130.45 27.62 123.04 50.07 142.12 63.99 147.06 60.4 148.63 55.23"/>
          <polygon class="cls-1" points="201.17 27.62 195.33 27.62 190.84 30.98 198.93 30.98 204.76 48.95 189.5 59.95 165.92 42.88 165.92 42.88 165.92 42.88 158.51 59.5 165.92 64.89 173.33 59.5 168.61 48.72 189.5 63.99 208.58 50.07 201.17 27.62"/>
          <polygon class="cls-1" points="170.86 3.14 189.94 3.14 195.78 21.1 172.21 38.17 172.21 38.17 172.21 38.17 185.68 50.52 193.09 45.13 190.39 36.37 178.49 37.72 199.37 22.45 192.19 0 168.61 0 166.82 5.61 168.39 10.78 170.86 3.14"/>
          <polygon class="cls-1" points="142.57 25.82 136.06 21.1 141.67 3.14 160.76 3.14 169.74 30.98 169.74 30.98 169.74 30.98 185.45 21.78 182.76 13.02 173.55 13.02 171.08 24.7 163 0 139.43 0 132.24 22.45 136.96 25.82 142.57 25.82"/>
          <g>
            <path class="cls-1" d="m0,200.5l1.35-2.69,9.21-19.31c.22-.45.45-.9.67-1.12s.22-.67.22-.9,0-.45-.45-.67c-.22,0-.45-.22-.67-.22v-.9h8.31v.9c-.22,0-.45,0-.67.22-.22,0-.45.45-.45.67v.9c0,.22.22.67.45,1.12l11.23,22.23h-6.29l-1.35-2.69-1.8-3.59h-11.68l-1.8,3.59-1.57,2.92H0v-.45Zm18.19-10.1l-4.27-9.21-4.71,9.21h8.98Z"/>
            <path class="cls-1" d="m166.82,200.5l1.35-2.69,9.21-19.31c.22-.45.45-.9.67-1.12s.22-.67.22-.9,0-.45-.45-.67c-.22,0-.45-.22-.67-.22v-.9h8.31v.9c-.22,0-.45,0-.67.22-.22,0-.45.45-.45.67v.9c0,.22.22.67.45,1.12l11.23,22.23h-6.29l-1.35-2.69-1.8-3.59h-12.12l-1.8,3.59-1.57,2.92h-4.71l.45-.45Zm18.19-10.1l-4.27-9.21-4.71,9.21h8.98Z"/>
            <path class="cls-1" d="m49.39,200.5v-24.25c0-.67-.45-.9-1.57-.9v-.9h8.53v.9c-.9,0-1.35.22-1.35.9v19.76h19.08v4.49"/>
            <path class="cls-1" d="m266.95,200.5v-24.25c0-.67-.45-.9-1.35-.9v-.9h8.31v.9c-.9,0-1.35.22-1.35.9v24.25h-5.61Z"/>
            <path class="cls-1" d="m126.63,200.5v-10.55h7.18l7.41,10.55h6.51l-7.63-11c2.25-.45,3.82-1.12,5.16-2.25,1.35-1.12,2.02-2.92,2.02-4.94s-.22-2.69-.67-3.59c-.45-.9-1.12-1.8-2.02-2.47-.9-.67-2.02-1.12-3.37-1.35s-2.69-.45-4.27-.45h-16.84v.9c.9,0,1.35.22,1.35.9v24.25h5.61-.45Zm8.53-14.37h-8.53v-7.41h8.53c1.12,0,2.25,0,2.92.22.9,0,1.35.45,1.8.67.45.22.9.67.9,1.12s.22.9.22,1.57,0,1.12-.22,1.35c0,.45-.45.9-.9,1.12s-1.12.67-1.8.67c-.9,0-1.8.22-2.92.22v.45Z"/>
            <path class="cls-1" d="m236.64,174.45v.9c.9,0,1.35.22,1.35.9v15.72l-14.14-14.82c-.67-.67-.9-1.12-.9-1.35s0-.45.45-.45v-.9h-8.53v.9c.45,0,.9.22.9.9v24.25h5.16v-18.19l17.51,18.19h4.71v-24.25c0-.67.45-.9.9-.9v-.9s-7.41,0-7.41,0Z"/>
            <path class="cls-1" d="m318.59,175.35c.45,0,.67,0,.67.45s-.22.9-.67,1.57l-7.18,12.8-7.18-12.8c-.22-.67-.67-1.12-.67-1.57s.45-.67.9-.67v-.9h-9.21v.9c.45,0,.9,0,.9.9v24.25h4.94v-18.19h0l9.65,18.19h0l9.88-18.19h0v18.19h5.39v-24.25c0-.67.45-.9.9-.9v-.9h-9.21v.9l.9.22Z"/>
          </g>
        </g>
      </g>
    </g>
  </g>
</svg>